<svg id="a" width="210mm" height="297mm" version="1.1" viewBox="0 0 210 297" xmlns="http://www.w3.org/2000/svg">
	<g id="b">
		<path id="c" d="m35.466 139.37 150.24 0.18649-17.293 29.203-116.28 0.15439z" stroke="white" stroke-width=".26458px" fill="white"/>
		<g fill="black" stroke-width=".035278">
			<path id="d" d="m62.558 154.49v9.1722h2.787c2.3636 0 2.7869-0.10584 2.928-0.635 0.0706-0.3175 0.0706-4.445 0-9.1722l-0.14111-8.5372h-5.5739z"/>
			<path id="e" d="m77.968 147.27v2.1167l1.8697 0.10583 1.8344 0.10583 0.10583 6.9497 0.0706 6.985h2.8222c2.4342 0 2.8222-0.0706 2.8575-0.635 0.0353-0.3175 0.0706-3.2103 0.14111-6.4206 0.0353-3.2103 0.10584-6.103 0.10584-6.4558 0.0706-0.49389 0.42333-0.59972 2.0108-0.59972h1.9756l-0.10584-2.0461-0.10583-2.0108-6.7733-0.10583-6.8086-0.0706z"/>
			<path id="f" d="m100.47 145.58-0.9525 0.74083v7.6553c0.0353 10.019-0.56445 9.2428 7.1967 9.2428h5.8561v-4.2333h-7.0908l0.10583-4.8683 0.10584-4.8331 6.9144-0.21166-0.10583-2.0108-0.10584-2.0108-5.5033-0.10583c-5.1153-0.0706-5.5386-0.0353-6.4206 0.635z"/>
			<path id="g" d="m122.47 144.79c-1.1289 0.38805-1.4111 1.3053-1.4111 4.3039 0.0353 1.8344 0.17639 3.2456 0.45862 3.5983 0.24694 0.3175 1.5522 1.2347 2.8928 2.0814 3.175 1.9756 3.7042 2.4342 3.7042 3.2456 0 0.56445-0.3175 0.635-3.4925 0.635-3.9511 0-3.8806-0.0353-3.5983 2.8928l0.10583 1.3406h5.715c4.0217 0 5.8914-0.14111 6.3147-0.45861 0.45861-0.3175 0.67028-1.1642 0.81139-3.1397 0.28222-4.0922 0-4.7272-3.5278-6.9497-3.1397-1.9756-4.0217-2.7164-3.5983-3.1397 0.14111-0.14111 1.7992-0.3175 3.6689-0.42334l3.4219-0.17638-0.0353-1.9403v-1.9403l-5.4681-0.0706c-2.9633-0.0353-5.6797 0.0353-5.9619 0.14112z"/>
			<path id="h" d="m143.88 145.13c-1.1289 0.56445-1.4817 2.0108-1.1994 5.0094 0.24694 2.7517 0.56444 3.2103 3.5983 4.9389 2.7517 1.5522 3.7042 2.4342 3.4572 3.1044-0.17639 0.49389-0.77612 0.59972-3.5631 0.59972-1.8344 0-3.4219 0.10584-3.4925 0.24695-0.0706 0.17639-0.0706 1.1289 0.0353 2.1167l0.14111 1.8697h5.715c7.1261 0 6.9144 0.14111 6.9144-4.5508 0-3.1044-0.0353-3.3161-0.98777-4.198-0.52917-0.52917-2.1167-1.6581-3.5278-2.5047-3.7394-2.2578-3.422-2.8575 1.5169-2.8575h2.9281l0.10583-1.5169c0.24695-2.8575 0.56445-2.7164-5.4328-2.7164-3.563 0-5.6444 0.14111-6.2089 0.45861z"/>
		</g>
	</g>
</svg>
