<?xml version="1.0" standalone="no"?>
<!DOCTYPE svg PUBLIC "-//W3C//DTD SVG 20010904//EN"
 "http://www.w3.org/TR/2001/REC-SVG-20010904/DTD/svg10.dtd">
<svg version="1.0" xmlns="http://www.w3.org/2000/svg"
 width="96.000000pt" height="96.000000pt" viewBox="0 0 96.000000 96.000000"
 preserveAspectRatio="xMidYMid meet">
<metadata>
Created by potrace 1.14, written by Peter Selinger 2001-2017
</metadata>
<g transform="translate(0.000000,96.000000) scale(0.100000,-0.100000)"
fill="#000000" stroke="none">
<path d="M48 862 c-7 -3 -21 -11 -30 -20 -17 -14 -18 -45 -18 -381 l0 -366
480 0 480 0 0 337 c0 293 -2 339 -16 352 -20 20 4 19 -315 21 l-277 1 -24 28
c-23 27 -26 28 -145 30 -66 1 -127 0 -135 -2z m148 -377 c7 -37 24 -48 24 -16
0 29 11 51 25 51 14 0 25 -22 25 -50 0 -21 16 -36 18 -17 0 7 3 21 6 32 2 11
5 23 5 28 2 15 31 6 31 -10 0 -32 -34 -123 -46 -123 -7 0 -19 19 -27 43 l-14
42 -8 -38 c-7 -36 -28 -57 -42 -44 -3 3 -14 36 -24 72 -17 63 -17 65 1 65 14
0 21 -10 26 -35z m219 -7 l8 -43 12 40 c6 22 18 40 26 40 7 0 19 -18 25 -40
l12 -40 7 30 c12 51 14 55 30 55 18 0 18 3 -1 -74 -19 -75 -42 -83 -59 -22
-11 38 -25 39 -25 1 0 -26 -27 -52 -40 -39 -5 5 -15 37 -23 72 -13 58 -13 62
3 62 13 0 20 -12 25 -42z m220 -3 l12 -40 7 43 c10 55 34 53 51 -3 l12 -40 8
38 c7 34 28 58 40 45 3 -2 -3 -33 -13 -69 -19 -72 -41 -84 -57 -31 -11 40 -21
41 -30 2 -14 -64 -38 -50 -60 34 -18 70 -19 68 2 64 9 -2 21 -20 28 -43z m187
-87 c-9 -9 -15 -9 -24 0 -10 10 -10 15 2 22 20 12 38 -6 22 -22z"/>
</g>
</svg>
